<svg xmlns="http://www.w3.org/2000/svg" xmlns:xlink="http://www.w3.org/1999/xlink" width="54.38" height="54.391" viewBox="0 0 54.38 54.391">
  <defs>
    <filter id="Path_6314" x="0" y="0" width="54.38" height="54.391" filterUnits="userSpaceOnUse">
      <feOffset dy="3" input="SourceAlpha"/>
      <feGaussianBlur stdDeviation="3" result="blur"/>
      <feFlood flood-opacity="0.161"/>
      <feComposite operator="in" in2="blur"/>
      <feComposite in="SourceGraphic"/>
    </filter>
  </defs>
  <g transform="matrix(1, 0, 0, 1, 0, 0)" filter="url(#Path_6314)">
    <path id="Path_6314-2" data-name="Path 6314" d="M483.687,659.811H471.413a.554.554,0,0,0,0,1.068h12.274a.554.554,0,0,0,0-1.068Zm-9.025-12.38a.554.554,0,0,1,.753,0l.526.554a.753.753,0,0,0,1.057,0l2.652-2.658a.525.525,0,1,1,.753.731l-3.322,3.322a.885.885,0,0,1-.631.255.874.874,0,0,1-.626-.255l-1.163-1.2A.554.554,0,0,1,474.663,647.431Zm.426,2.691a1.976,1.976,0,0,0,2.768,0l3.322-3.322a1.6,1.6,0,1,0-2.281-2.215l-2.431,2.43-.3-.3a1.6,1.6,0,0,0-2.264,2.259Zm2.453-9.567a6.793,6.793,0,0,0-4.08,1.357.534.534,0,0,0,.642.853,5.7,5.7,0,0,1,3.438-1.141,5.758,5.758,0,1,1-4.955,2.835.554.554,0,0,0-.919-.554,6.821,6.821,0,1,0,5.874-3.361Zm6.14,16.056H471.413a.554.554,0,0,0,0,1.063h12.274a.554.554,0,0,0,0-1.063Zm8.858-8.515v17.03h-5.055V648.1Zm-6.123,17.03H468.7v-25.1a1.605,1.605,0,0,1,1.6-1.6h14.544a1.6,1.6,0,0,1,1.595,1.6Zm-18.824,0h-5.06V648.1h5.06Zm13.216,6.478a1.39,1.39,0,0,1,1.351,1.063h-9.24a1.384,1.384,0,0,1,1.345-1.063Zm-4.828-3.283h3.111v2.215H476Zm19.206-8.9a.554.554,0,0,0,.554-.554v-11.3a2.669,2.669,0,0,0-2.663-2.669h-5.592v-4.878a2.669,2.669,0,0,0-2.663-2.663H470.278a2.663,2.663,0,0,0-2.663,2.663v4.889h-5.592a2.668,2.668,0,0,0-2.663,2.669v18.093a2.669,2.669,0,0,0,2.663,2.663H474.94v2.215h-.675A2.458,2.458,0,0,0,471.812,673a.753.753,0,0,0,.748.747h9.966a.747.747,0,0,0,.747-.747,2.458,2.458,0,0,0-2.453-2.453h-.67v-2.215h12.917a2.669,2.669,0,0,0,2.663-2.663v-4.28a.554.554,0,0,0-1.068,0v4.28a1.6,1.6,0,0,1-1.595,1.6H462.023a1.606,1.606,0,0,1-1.6-1.6v-18.1a1.6,1.6,0,0,1,1.6-1.6h5.592v1.063h-5.381a.747.747,0,0,0-.742.747v17.883a.554.554,0,0,0,.554.554h30.838a.747.747,0,0,0,.747-.747V647.78a.753.753,0,0,0-.747-.747h-5.376v-1.063H493.1a1.595,1.595,0,0,1,1.595,1.6V658.9a.554.554,0,0,0,.515.531Z" transform="translate(-450.36 -631.36)" fill="#0B4AA8"/>
  </g>
</svg>
