<svg id="envelope" xmlns="http://www.w3.org/2000/svg" width="36.38" height="27.285" viewBox="0 0 36.38 27.285">
  <g id="Group_2761" data-name="Group 2761" transform="translate(0 0)">
    <path id="Path_5932" data-name="Path 5932" d="M33.349,64H3.032A3.035,3.035,0,0,0,0,67.032V88.254a3.035,3.035,0,0,0,3.032,3.032H33.349a3.035,3.035,0,0,0,3.032-3.032V67.032A3.035,3.035,0,0,0,33.349,64ZM3.032,65.516H33.349a1.442,1.442,0,0,1,.315.064c-2.625,2.4-11.328,10.364-14.374,13.108a1.52,1.52,0,0,1-2.2,0C14.044,75.943,5.341,67.981,2.716,65.58A1.448,1.448,0,0,1,3.032,65.516ZM1.516,88.254V67.032a1.464,1.464,0,0,1,.085-.419C3.61,68.451,9.682,74.007,13.62,77.587,9.7,80.959,3.621,86.718,1.6,88.649A1.461,1.461,0,0,1,1.516,88.254Zm31.833,1.516H3.032A1.451,1.451,0,0,1,2.69,89.7c2.092-1.995,8.205-7.787,12.061-11.085.5.456.962.872,1.324,1.2a3.028,3.028,0,0,0,4.23,0c.362-.326.822-.742,1.325-1.2C25.485,81.913,31.6,87.7,33.69,89.7A1.449,1.449,0,0,1,33.349,89.769Zm1.516-1.516a1.464,1.464,0,0,1-.08.4c-2.026-1.932-8.1-7.69-12.024-11.061C26.7,74.007,32.77,68.452,34.78,66.613a1.465,1.465,0,0,1,.085.419Z" transform="translate(0 -64)" fill="#0b4aa8"/>
  </g>
</svg>
