<svg xmlns="http://www.w3.org/2000/svg" width="75.214" height="30.516" viewBox="0 0 75.214 30.516">
  <g id="Group_2936" data-name="Group 2936" transform="translate(0 0)">
    <path id="Path_5924" data-name="Path 5924" d="M364.616,2266.381l-1.379,2.3-1.385-2.3H361.2v4.347h.578v-3.391l1.422,2.36h.075l1.422-2.366v3.4h.571v-4.347Zm6.924,2.422h1.832v-.54H371.54v-1.335h1.987v-.546h-2.565v4.347h2.6v-.547H371.54Zm10.179.82-2.236-3.242h-.466v4.347h.578v-3.248l2.236,3.248h.466v-4.347h-.578Zm6.272,1.105h.578v-4.347h-.578Zm8.974-1.105-2.236-3.242h-.466v4.347h.578v-3.248l2.236,3.248h.466v-4.347h-.578Zm8.29-1.05v.521h1.6a1.428,1.428,0,0,1-1.546,1.149,1.69,1.69,0,0,1-1.248-.485,1.757,1.757,0,0,1,0-2.41,1.624,1.624,0,0,1,1.224-.491,1.56,1.56,0,0,1,1.391.783l.5-.292a2.022,2.022,0,0,0-.776-.758,2.251,2.251,0,0,0-3.385,1.963,2.218,2.218,0,0,0,2.292,2.254,2.15,2.15,0,0,0,1.546-.559,1.889,1.889,0,0,0,.584-1.416v-.261Z" transform="translate(-359.615 -2256.352)"/>
    <path id="Path_5925" data-name="Path 5925" d="M2904.439,3897.7l-4.819-12.918h2.317l2.731,7.737q.443,1.251.82,2.6c.193-.681.459-1.5.808-2.456l2.838-7.882h2.223l-4.836,12.918Zm8-6.458q0-3.579,1.973-5.3a5.9,5.9,0,0,1,4.015-1.432,5.7,5.7,0,0,1,4.3,1.743,6.66,6.66,0,0,1,1.669,4.808,8.6,8.6,0,0,1-.738,3.912,5.259,5.259,0,0,1-2.154,2.215,6.19,6.19,0,0,1-3.08.788,5.712,5.712,0,0,1-4.335-1.734A6.969,6.969,0,0,1,2912.441,3891.242Zm2.215,0a5.506,5.506,0,0,0,1.071,3.7,3.558,3.558,0,0,0,5.39,0,5.651,5.651,0,0,0,1.071-3.771,5.34,5.34,0,0,0-1.079-3.618,3.562,3.562,0,0,0-5.382-.008A5.491,5.491,0,0,0,2914.656,3891.246Zm11.14,6.455v-1.784l8.088-9.442q-1.378.075-2.424.075h-5.172v-1.767H2936.7v1.439l-6.923,8.189-1.325,1.522q1.459-.125,2.732-.124h5.91v1.891Zm13.449,0v-12.918h2.165V3897.7Zm5.467,0v-12.918h1.944v1.825a4.516,4.516,0,0,1,1.6-1.522,4.429,4.429,0,0,1,2.268-.577,4.171,4.171,0,0,1,2.321.594,3.172,3.172,0,0,1,1.276,1.663,4.6,4.6,0,0,1,3.958-2.257,3.878,3.878,0,0,1,2.932,1.062,4.558,4.558,0,0,1,1.03,3.273v8.857h-2.166v-8.131a6.059,6.059,0,0,0-.213-1.887,1.809,1.809,0,0,0-.767-.929,2.359,2.359,0,0,0-1.3-.353,3.025,3.025,0,0,0-2.244.9,4.018,4.018,0,0,0-.89,2.9v7.5h-2.166v-8.384a3.714,3.714,0,0,0-.529-2.186,2,2,0,0,0-1.731-.73,3.116,3.116,0,0,0-1.686.486,2.746,2.746,0,0,0-1.124,1.423,8.16,8.16,0,0,0-.345,2.7v6.7Z" transform="translate(-2886.893 -3867.459)"/>
    <path id="Path_5926" data-name="Path 5926" d="M0,3891.243q0-3.579,1.973-5.3a5.9,5.9,0,0,1,4.015-1.432,5.7,5.7,0,0,1,4.3,1.742,6.66,6.66,0,0,1,1.669,4.808,8.6,8.6,0,0,1-.738,3.912,5.259,5.259,0,0,1-2.153,2.215,6.2,6.2,0,0,1-3.08.788,5.712,5.712,0,0,1-4.335-1.734,6.969,6.969,0,0,1-1.653-5Zm2.215,0a5.506,5.506,0,0,0,1.07,3.7,3.433,3.433,0,0,0,2.7,1.232,3.41,3.41,0,0,0,2.686-1.236,5.65,5.65,0,0,0,1.071-3.771,5.336,5.336,0,0,0-1.079-3.617,3.415,3.415,0,0,0-2.678-1.233,3.442,3.442,0,0,0-2.7,1.224A5.492,5.492,0,0,0,2.215,3891.247Z" transform="translate(0 -3867.459)"/>
    <rect id="Rectangle_1883" data-name="Rectangle 1883" width="48.299" height="0.557" transform="translate(1.52 15.385)"/>
    <rect id="Rectangle_1884" data-name="Rectangle 1884" width="17.435" height="0.557" transform="translate(57.779 15.368)"/>
    <circle id="Ellipse_3006" data-name="Ellipse 3006" cx="3.274" cy="3.274" r="3.274" transform="translate(50.412 9.276)" fill="#980000"/>
    <path id="Path_5927" data-name="Path 5927" d="M12890.8,0l5.579,7.211-7.606,2.292c.063.128.087.268.139.4a.671.671,0,0,1-.423.8,6.313,6.313,0,0,1-.636.193c-.552.19-1.117.341-1.671.526a.932.932,0,0,1-.615-.005.888.888,0,0,1-.388-.75l-1.563.461-1.149-1.487L12890.8,0Zm-5.057,10.476c.095.331.026.572.453.53.4-.094,1.337-.446,1.92-.627.414-.129.272-.369.153-.728Z" transform="translate(-12825.923 0)" fill="#980000"/>
  </g>
</svg>
